<?xml version="1.0" standalone="no"?>
<!DOCTYPE svg PUBLIC "-//W3C//DTD SVG 20010904//EN"
 "http://www.w3.org/TR/2001/REC-SVG-20010904/DTD/svg10.dtd">
<svg version="1.0" xmlns="http://www.w3.org/2000/svg"
 width="1440.000000pt" height="1440.000000pt" viewBox="0 0 1440.000000 1440.000000"
 preserveAspectRatio="xMidYMid meet">
<metadata>
Created by potrace 1.14, written by Peter Selinger 2001-2017
</metadata>
<g transform="translate(0.000000,1440.000000) scale(0.100000,-0.100000)"
fill="#000000" stroke="none">
<path d="M7005 9918 c-27 -5 -59 -11 -70 -13 -57 -9 -215 -58 -250 -77 -126
-68 -491 -338 -692 -511 -15 -14 -77 -67 -138 -118 -60 -51 -123 -106 -140
-120 -16 -15 -39 -36 -51 -46 -22 -18 -139 -123 -249 -222 -33 -30 -78 -72
-100 -92 -22 -21 -56 -53 -76 -71 -20 -18 -83 -76 -140 -129 -57 -53 -118
-110 -135 -125 -158 -148 -303 -284 -329 -309 -18 -16 -86 -81 -153 -144 -67
-63 -153 -144 -190 -180 -38 -36 -167 -160 -287 -276 -239 -230 -247 -239
-675 -656 -420 -409 -661 -639 -749 -716 -103 -89 -1351 -1355 -1369 -1388
-11 -21 -10 -26 9 -35 18 -10 75 -9 119 3 105 27 333 98 606 188 185 61 249
95 398 212 241 189 603 540 982 953 90 97 201 219 214 234 18 21 174 191 247
269 28 31 62 68 75 82 12 14 63 69 112 122 49 54 96 106 105 116 9 10 59 65
111 121 123 134 129 141 210 230 79 87 92 101 218 238 53 57 104 113 114 125
11 12 40 44 66 72 60 65 195 214 219 241 22 26 197 216 238 259 52 55 229 247
248 269 10 12 49 53 85 91 37 39 96 102 131 140 177 193 324 345 332 345 19 0
-43 -100 -136 -220 -53 -69 -107 -138 -119 -153 -11 -16 -40 -53 -63 -82 -69
-86 -411 -624 -494 -775 -13 -25 -26 -47 -29 -50 -3 -3 -38 -61 -77 -130 -94
-167 -106 -188 -149 -267 -20 -37 -44 -81 -54 -98 -99 -171 -356 -687 -449
-898 -95 -219 -175 -428 -221 -577 -30 -98 -32 -112 -26 -205 3 -55 15 -138
26 -184 39 -159 130 -315 198 -339 55 -19 125 4 150 49 16 29 149 218 162 229
3 3 30 37 60 75 45 58 133 167 218 270 65 79 167 201 172 205 3 3 28 32 55 65
50 60 91 108 110 129 6 6 35 40 65 75 30 36 62 72 70 81 8 9 26 30 40 46 47
55 145 168 160 184 8 9 40 45 70 81 70 82 525 537 784 784 251 239 257 245
412 390 70 66 155 145 188 176 l60 56 21 -62 c12 -35 37 -88 54 -118 17 -30
28 -57 24 -59 -5 -1 -46 -48 -93 -103 -47 -55 -89 -105 -95 -111 -5 -6 -28
-33 -50 -59 -22 -27 -45 -53 -50 -59 -24 -25 -282 -336 -390 -471 -44 -55 -82
-102 -85 -105 -17 -15 -222 -294 -255 -345 -21 -33 -48 -76 -60 -95 -52 -80
-145 -231 -145 -234 0 -2 -28 -52 -63 -112 -137 -237 -210 -433 -233 -624 -3
-25 -8 -52 -10 -60 -13 -37 -15 -253 -4 -321 13 -81 65 -290 79 -317 5 -9 22
-43 37 -75 70 -147 230 -229 447 -229 56 0 85 5 103 17 28 18 29 12 -4 133
-11 40 -20 73 -20 75 0 1 -3 22 -6 47 -24 166 -30 257 -31 470 0 190 1 197 29
280 29 85 146 323 185 379 12 16 21 34 21 40 0 6 4 11 9 11 5 0 11 8 15 18 10
31 184 286 345 507 125 172 293 399 300 405 4 3 26 32 51 65 25 33 52 69 62
80 9 11 81 101 159 200 79 99 148 185 154 191 6 6 33 39 60 72 44 54 54 61 94
67 166 23 433 153 696 339 239 169 454 386 597 606 l49 74 -23 18 c-30 23 -45
18 -158 -57 -89 -58 -626 -333 -634 -324 -3 2 12 23 32 45 62 69 85 96 166
194 44 52 82 97 85 100 4 3 26 30 51 60 25 30 47 57 50 60 3 3 35 40 70 83 36
43 82 97 102 120 21 23 38 45 38 49 0 7 40 27 152 77 242 108 857 288 1115
327 21 3 54 9 73 14 38 9 169 31 210 35 14 2 61 8 105 14 139 18 154 20 410
36 80 5 481 5 575 0 360 -19 588 -78 652 -167 58 -82 11 -205 -137 -354 -151
-154 -339 -285 -775 -544 -437 -259 -1272 -603 -1349 -555 -22 13 -3 38 173
226 136 145 265 285 283 305 10 12 68 75 129 140 62 65 125 133 140 150 168
182 236 254 273 289 23 22 47 51 52 63 19 48 -61 171 -129 199 -53 22 -101 6
-212 -70 -109 -75 -400 -321 -620 -523 -25 -23 -61 -56 -80 -74 -19 -17 -84
-77 -144 -133 -60 -56 -125 -117 -145 -135 -256 -237 -829 -803 -1013 -1002
-109 -117 -116 -125 -196 -219 -26 -30 -52 -59 -58 -65 -34 -35 -179 -236
-219 -303 -25 -43 -86 -134 -135 -203 -82 -115 -193 -290 -230 -364 -9 -17
-37 -71 -62 -121 -129 -249 -167 -375 -146 -481 13 -68 12 -63 37 -129 74
-196 165 -315 250 -328 64 -10 65 -8 201 298 127 288 177 375 213 375 16 0 42
-28 81 -88 34 -50 154 -166 217 -209 65 -44 115 -68 215 -101 141 -48 191 -56
329 -56 148 -1 205 5 325 35 47 11 92 22 100 24 185 40 694 218 975 339 17 7
55 24 85 37 58 25 331 161 365 182 127 78 303 198 341 232 6 6 39 33 73 60 33
28 114 104 179 170 215 219 322 406 366 640 18 99 18 245 -1 333 -8 37 -16 74
-18 83 -2 8 -13 37 -26 65 -64 138 -187 245 -419 361 -66 33 -116 65 -118 74
-2 11 17 26 58 48 56 28 165 98 295 189 363 255 633 556 712 792 25 77 34 180
20 252 -27 143 -182 409 -311 532 -58 54 -187 136 -281 178 -81 36 -270 103
-315 112 -14 2 -59 12 -100 21 -258 55 -645 72 -955 41 -86 -9 -218 -28 -310
-46 -27 -5 -61 -11 -75 -14 -14 -2 -55 -11 -91 -20 -37 -8 -78 -17 -90 -20
-13 -2 -87 -21 -164 -41 -77 -20 -156 -40 -175 -45 -31 -8 -37 -6 -65 23 -18
18 -66 50 -108 71 -101 51 -136 48 -207 -21 -74 -70 -122 -94 -163 -81 -174
58 -422 -58 -863 -404 -89 -69 -172 -135 -185 -146 -13 -11 -67 -55 -119 -98
-52 -43 -97 -81 -100 -84 -3 -3 -32 -27 -65 -55 -33 -27 -62 -52 -65 -55 -3
-3 -70 -61 -150 -130 -80 -68 -150 -129 -156 -135 -6 -5 -42 -37 -79 -70 -38
-33 -73 -64 -79 -70 -6 -5 -49 -44 -96 -85 -47 -41 -103 -92 -125 -112 -22
-20 -49 -45 -61 -55 -18 -15 -89 -80 -205 -184 -37 -34 -92 -83 -189 -169
-112 -100 -148 -131 -175 -155 -69 -62 -165 -146 -195 -171 -19 -16 -39 -34
-45 -40 -5 -7 -44 -40 -85 -75 -92 -78 -110 -94 -180 -154 -188 -162 -399
-335 -410 -335 -32 0 9 96 168 390 19 36 53 99 75 140 22 41 59 111 82 155 57
108 196 375 209 402 6 13 14 23 19 23 4 0 7 5 7 10 0 21 268 445 489 773 47
71 93 139 101 152 16 25 111 164 305 445 63 91 136 196 162 234 26 39 63 88
81 109 80 96 45 159 -90 163 -40 1 -95 -3 -123 -8z m4560 -2523 c123 -42 167
-90 158 -174 -18 -175 -185 -389 -487 -625 -360 -282 -841 -547 -1344 -743
-109 -42 -361 -129 -400 -138 -9 -2 -42 -11 -72 -20 -30 -9 -64 -18 -75 -20
-11 -3 -60 -14 -110 -25 -49 -11 -101 -21 -115 -24 -14 -2 -41 -7 -60 -10 -76
-13 -98 -16 -170 -23 -41 -4 -140 -8 -220 -8 -136 0 -147 1 -177 23 -18 13
-33 29 -33 36 0 9 308 429 393 536 7 8 70 94 142 190 71 96 132 177 135 180 3
3 17 21 30 40 13 19 27 37 30 40 3 3 17 21 30 40 13 19 27 37 30 40 3 3 37 48
75 100 38 52 71 97 75 100 3 3 17 21 30 40 14 19 28 40 33 45 4 6 46 62 94
125 47 63 96 127 108 141 25 31 75 59 97 55 22 -3 48 -26 48 -42 0 -7 23 -36
51 -65 l50 -52 72 6 c40 3 133 22 207 42 418 112 640 162 800 181 25 3 58 7
75 10 16 2 66 7 110 10 44 3 81 7 82 8 2 1 60 1 130 0 89 -1 143 -7 178 -19z"/>
</g>
</svg>
